<svg width="215" height="40" viewBox="0 0 215 40" fill="none" xmlns="http://www.w3.org/2000/svg">
<rect width="214.694" height="40" rx="20" fill="white" fill-opacity="0.1"/>
<path d="M47.3985 10.8752H43.152C42.1805 10.8752 41.5422 11.1527 41.0426 11.8188C40.6817 12.3184 40.5985 12.6515 40.5985 13.956V26.307C40.4875 28.5274 41.4589 29.4988 43.6793 29.3878H48.7307C51.9503 29.3878 54.4205 27.0009 54.4205 23.8923C54.4205 22.4491 53.9209 21.2556 52.9218 20.3674C52.2834 19.8123 51.756 19.5348 50.5903 19.2017C52.1724 18.2303 52.783 17.2033 52.783 15.5103C52.783 14.1225 52.2279 12.9013 51.2287 12.0409C50.2573 11.2082 49.1748 10.8752 47.3985 10.8752ZM46.9544 17.925H44.845V14.5666H46.7879C47.9258 14.5666 48.7585 15.2327 48.7585 16.1486C48.7585 17.2033 48.0091 17.925 46.9544 17.925ZM47.7871 25.6964H44.845V21.7274H47.676C49.2303 21.7274 50.0075 22.3935 50.0075 23.7535C50.0075 24.2809 49.8409 24.725 49.5356 25.0858C49.1471 25.5576 48.7307 25.6964 47.7871 25.6964Z" fill="white"/>
<path d="M60.0925 23.698H67.6974C68.9464 23.698 69.4738 23.2262 69.4738 22.0882C69.4738 18.1193 66.504 15.0384 62.7015 15.0384C58.677 15.0384 55.7072 18.2303 55.7072 22.5601C55.7072 26.7233 58.7603 29.6654 63.1178 29.6654C66.2542 29.6654 69.224 28.1111 69.224 26.4458C69.224 25.5854 68.4191 24.7805 67.5864 24.7805C67.2811 24.7805 66.9481 24.8637 66.6983 24.9748C64.5611 26.0295 64.3113 26.1127 63.3399 26.1127C61.7301 26.1127 60.7032 25.3356 60.0925 23.698ZM65.4493 20.9225H59.9538C60.5366 19.1462 61.4248 18.3691 62.7848 18.3691C63.6174 18.3691 64.3946 18.7576 64.8664 19.4237C65.1162 19.8123 65.255 20.1454 65.4493 20.9225Z" fill="white"/>
<path d="M75.0608 23.698H82.6657C83.9147 23.698 84.442 23.2262 84.442 22.0882C84.442 18.1193 81.4722 15.0384 77.6698 15.0384C73.6453 15.0384 70.6755 18.2303 70.6755 22.5601C70.6755 26.7233 73.7285 29.6654 78.0861 29.6654C81.2224 29.6654 84.1922 28.1111 84.1922 26.4458C84.1922 25.5854 83.3873 24.7805 82.5547 24.7805C82.2494 24.7805 81.9163 24.8637 81.6665 24.9748C79.5294 26.0295 79.2796 26.1127 78.3081 26.1127C76.6983 26.1127 75.6714 25.3356 75.0608 23.698ZM80.4175 20.9225H74.922C75.5049 19.1462 76.393 18.3691 77.753 18.3691C78.5857 18.3691 79.3628 18.7576 79.8347 19.4237C80.0845 19.8123 80.2232 20.1454 80.4175 20.9225Z" fill="white"/>
<path d="M91.4252 26.8621V19.0074H92.1746C93.0905 19.0074 93.2848 18.9797 93.7289 18.7576C94.2563 18.5078 94.6448 17.8417 94.6448 17.1756C94.6448 16.5095 94.2563 15.8433 93.7289 15.5658C93.3126 15.3437 93.0628 15.316 92.1746 15.316H91.4252V13.2066C91.4252 12.2074 91.3975 11.9854 91.1477 11.5135C90.8424 10.9307 90.1207 10.5144 89.3991 10.5144C88.6497 10.5144 87.9281 10.9307 87.6228 11.5413C87.373 11.9854 87.3452 12.2352 87.3452 13.2066V15.316C86.6791 15.316 86.6791 15.316 86.4016 15.3715C85.4301 15.5103 84.8195 16.2319 84.8195 17.1756C84.8195 17.6197 84.986 18.036 85.2914 18.4246C85.6522 18.8409 86.2628 19.0352 87.3452 19.0074V26.8621C87.3452 27.8613 87.373 28.0833 87.6228 28.5552C87.9281 29.1658 88.6497 29.5821 89.3991 29.5821C90.1207 29.5821 90.8424 29.1658 91.1477 28.5552C91.3975 28.0833 91.4252 27.8335 91.4252 26.8621Z" fill="white"/>
<path d="M100.182 26.8621V11.7356C100.182 10.7364 100.155 10.5144 99.9049 10.0425C99.5995 9.45966 98.8779 9.04333 98.1563 9.04333C97.4069 9.04333 96.6853 9.45966 96.38 10.0703C96.1302 10.5144 96.1024 10.7642 96.1024 11.7356V26.8621C96.1024 27.8613 96.1302 28.0833 96.38 28.5552C96.6853 29.1658 97.4069 29.5821 98.1563 29.5821C98.8779 29.5821 99.5995 29.1658 99.9049 28.5552C100.155 28.0833 100.182 27.8335 100.182 26.8621Z" fill="white"/>
<path d="M106.522 23.698H114.127C115.375 23.698 115.903 23.2262 115.903 22.0882C115.903 18.1193 112.933 15.0384 109.131 15.0384C105.106 15.0384 102.136 18.2303 102.136 22.5601C102.136 26.7233 105.189 29.6654 109.547 29.6654C112.683 29.6654 115.653 28.1111 115.653 26.4458C115.653 25.5854 114.848 24.7805 114.015 24.7805C113.71 24.7805 113.377 24.8637 113.127 24.9748C110.99 26.0295 110.74 26.1127 109.769 26.1127C108.159 26.1127 107.132 25.3356 106.522 23.698ZM111.878 20.9225H106.383C106.966 19.1462 107.854 18.3691 109.214 18.3691C110.047 18.3691 110.824 18.7576 111.295 19.4237C111.545 19.8123 111.684 20.1454 111.878 20.9225Z" fill="white"/>
<path d="M132.065 10.8752H127.818C126.847 10.8752 126.208 11.1527 125.709 11.8188C125.348 12.3184 125.265 12.6515 125.265 13.956V26.307C125.154 28.5274 126.125 29.4988 128.345 29.3878H133.397C136.616 29.3878 139.087 27.0009 139.087 23.8923C139.087 22.4491 138.587 21.2556 137.588 20.3674C136.949 19.8123 136.422 19.5348 135.256 19.2017C136.838 18.2303 137.449 17.2033 137.449 15.5103C137.449 14.1225 136.894 12.9013 135.895 12.0409C134.923 11.2082 133.841 10.8752 132.065 10.8752ZM131.62 17.925H129.511V14.5666H131.454C132.592 14.5666 133.425 15.2327 133.425 16.1486C133.425 17.2033 132.675 17.925 131.62 17.925ZM132.453 25.6964H129.511V21.7274H132.342C133.896 21.7274 134.674 22.3935 134.674 23.7535C134.674 24.2809 134.507 24.725 134.202 25.0858C133.813 25.5576 133.397 25.6964 132.453 25.6964Z" fill="white"/>
<path d="M144.759 23.698H152.364C153.612 23.698 154.14 23.2262 154.14 22.0882C154.14 18.1193 151.17 15.0384 147.368 15.0384C143.343 15.0384 140.373 18.2303 140.373 22.5601C140.373 26.7233 143.426 29.6654 147.784 29.6654C150.92 29.6654 153.89 28.1111 153.89 26.4458C153.89 25.5854 153.085 24.7805 152.252 24.7805C151.947 24.7805 151.614 24.8637 151.364 24.9748C149.227 26.0295 148.977 26.1127 148.006 26.1127C146.396 26.1127 145.369 25.3356 144.759 23.698ZM150.115 20.9225H144.62C145.203 19.1462 146.091 18.3691 147.451 18.3691C148.284 18.3691 149.061 18.7576 149.532 19.4237C149.782 19.8123 149.921 20.1454 150.115 20.9225Z" fill="white"/>
<path d="M159.727 23.698H167.332C168.581 23.698 169.108 23.2262 169.108 22.0882C169.108 18.1193 166.138 15.0384 162.336 15.0384C158.311 15.0384 155.342 18.2303 155.342 22.5601C155.342 26.7233 158.395 29.6654 162.752 29.6654C165.888 29.6654 168.858 28.1111 168.858 26.4458C168.858 25.5854 168.053 24.7805 167.221 24.7805C166.915 24.7805 166.582 24.8637 166.333 24.9748C164.195 26.0295 163.946 26.1127 162.974 26.1127C161.364 26.1127 160.337 25.3356 159.727 23.698ZM165.084 20.9225H159.588C160.171 19.1462 161.059 18.3691 162.419 18.3691C163.252 18.3691 164.029 18.7576 164.501 19.4237C164.751 19.8123 164.889 20.1454 165.084 20.9225Z" fill="white"/>
<path d="M176.091 26.8621V19.0074H176.841C177.757 19.0074 177.951 18.9797 178.395 18.7576C178.922 18.5078 179.311 17.8417 179.311 17.1756C179.311 16.5095 178.922 15.8433 178.395 15.5658C177.979 15.3437 177.729 15.316 176.841 15.316H176.091V13.2066C176.091 12.2074 176.064 11.9854 175.814 11.5135C175.508 10.9307 174.787 10.5144 174.065 10.5144C173.316 10.5144 172.594 10.9307 172.289 11.5413C172.039 11.9854 172.011 12.2352 172.011 13.2066V15.316C171.345 15.316 171.345 15.316 171.068 15.3715C170.096 15.5103 169.486 16.2319 169.486 17.1756C169.486 17.6197 169.652 18.036 169.957 18.4246C170.318 18.8409 170.929 19.0352 172.011 19.0074V26.8621C172.011 27.8613 172.039 28.0833 172.289 28.5552C172.594 29.1658 173.316 29.5821 174.065 29.5821C174.787 29.5821 175.508 29.1658 175.814 28.5552C176.064 28.0833 176.091 27.8335 176.091 26.8621Z" fill="white"/>
<path d="M184.848 26.8621V11.7356C184.848 10.7364 184.821 10.5144 184.571 10.0425C184.266 9.45966 183.544 9.04333 182.822 9.04333C182.073 9.04333 181.351 9.45966 181.046 10.0703C180.796 10.5144 180.768 10.7642 180.768 11.7356V26.8621C180.768 27.8613 180.796 28.0833 181.046 28.5552C181.351 29.1658 182.073 29.5821 182.822 29.5821C183.544 29.5821 184.266 29.1658 184.571 28.5552C184.821 28.0833 184.848 27.8335 184.848 26.8621Z" fill="white"/>
<path d="M191.188 23.698H198.793C200.042 23.698 200.569 23.2262 200.569 22.0882C200.569 18.1193 197.599 15.0384 193.797 15.0384C189.772 15.0384 186.802 18.2303 186.802 22.5601C186.802 26.7233 189.855 29.6654 194.213 29.6654C197.349 29.6654 200.319 28.1111 200.319 26.4458C200.319 25.5854 199.514 24.7805 198.682 24.7805C198.376 24.7805 198.043 24.8637 197.793 24.9748C195.656 26.0295 195.406 26.1127 194.435 26.1127C192.825 26.1127 191.798 25.3356 191.188 23.698ZM196.544 20.9225H191.049C191.632 19.1462 192.52 18.3691 193.88 18.3691C194.713 18.3691 195.49 18.7576 195.962 19.4237C196.211 19.8123 196.35 20.1454 196.544 20.9225Z" fill="white"/>
<path fill-rule="evenodd" clip-rule="evenodd" d="M17.9952 9.52055C18.6636 9.52055 19.2546 9.84697 19.6129 10.3468C18.5609 11.1705 17.8863 12.4421 17.8863 13.8689C17.8863 15.0249 18.329 16.0789 19.0566 16.8755C16.01 18.1705 13.8776 21.1567 13.8776 24.6337C13.8776 29.2981 17.7151 33.0792 22.4489 33.0792C27.1827 33.0792 31.0202 29.2981 31.0202 24.6337C31.0202 21.1569 28.888 18.1708 25.8417 16.8756C26.5693 16.0791 27.0121 15.025 27.0121 13.8689C27.0121 12.35 26.2478 11.0071 25.0774 10.1931C25.4402 9.78112 25.9756 9.52055 26.5727 9.52055C27.3014 9.52055 27.8922 8.93849 27.8922 8.22048C27.8922 7.50247 27.3014 6.92041 26.5727 6.92041C24.7901 6.92041 23.2434 7.91566 22.4736 9.373L22.4492 9.37293C22.3321 9.37293 22.216 9.37728 22.1011 9.38583C21.3337 7.9215 19.7831 6.92041 17.9952 6.92041C17.2665 6.92041 16.6758 7.50247 16.6758 8.22048C16.6758 8.93849 17.2665 9.52055 17.9952 9.52055ZM16.2838 24.5864C16.3096 21.2531 19.0599 18.5589 22.4489 18.5589C23.4293 18.5589 24.3562 18.7843 25.1792 19.1855C24.2788 19.7101 23.6736 20.6858 23.6736 21.8027C23.6736 23.4745 25.0295 24.8298 26.7022 24.8298C27.4189 24.8298 28.0775 24.581 28.5961 24.165C28.6081 24.3197 28.6142 24.476 28.6142 24.6337C28.6142 27.9723 25.8809 30.6819 22.4989 30.7084C23.5647 29.9102 24.2528 28.6478 24.2528 27.2271C24.2528 24.8136 22.2672 22.8571 19.8178 22.8571C18.3753 22.8571 17.0938 23.5356 16.2838 24.5864Z" fill="white"/>
</svg>
