<svg width="33" height="40" viewBox="0 0 33 40" fill="none" xmlns="http://www.w3.org/2000/svg">
<path d="M30.8058 13.9794V9.44828C30.8058 9.08188 30.6563 8.73991 30.3949 8.48343C30.1272 8.22695 29.7598 8.0926 29.405 8.0926H29.2369C24.0385 8.0926 20.0852 6.02245 17.6821 4.28206C17.1903 3.93398 16.5179 3.94009 16.0385 4.29427C13.7039 6.04077 9.81913 8.12314 4.58337 8.12314H4.22851C3.8612 8.12314 3.50634 8.25138 3.23864 8.50786C2.96471 8.76433 2.82152 9.11241 2.82152 9.47881V19.1212C2.80907 19.7074 2.67833 33.5451 16.4868 36.8305C16.5864 36.8549 16.6922 36.8671 16.8043 36.8671C16.9164 36.8671 17.0346 36.8549 17.1467 36.8305C25.321 34.8763 28.6268 29.2033 29.9591 24.6416H32.2003C30.7373 30.217 26.8836 37.0259 16.8977 39.0716C16.8417 39.0838 16.7794 39.0838 16.7047 39.0655C0.455778 35.7374 0.62387 19.7624 0.642547 19.0723V6.09573C0.642547 5.91253 0.742157 5.80872 0.798188 5.75987C0.847993 5.71712 0.947603 5.65605 1.07834 5.65605C1.10324 5.65605 1.13437 5.66216 1.1655 5.66827C9.38957 7.18882 14.6316 2.9447 16.4992 1.05164C16.5926 0.966151 16.7047 0.917297 16.8292 0.917297H16.8354C16.9475 0.917297 17.0533 0.960044 17.1405 1.04554C19.0891 2.90806 24.4743 7.10333 32.4618 5.66827C32.6299 5.63163 32.7606 5.71101 32.8229 5.75987C32.9225 5.83925 32.9847 5.96138 32.9847 6.08962V13.9794H30.8058Z" fill="#8753D4" fill-opacity="0.6"/>
</svg>
